<?xml version="1.0" encoding="utf-8"?>
<!-- Generator: Adobe Illustrator 16.0.0, SVG Export Plug-In . SVG Version: 6.00 Build 0)  -->
<!DOCTYPE svg PUBLIC "-//W3C//DTD SVG 1.1//EN" "http://www.w3.org/Graphics/SVG/1.1/DTD/svg11.dtd">
<svg version="1.1" xmlns="http://www.w3.org/2000/svg" xmlns:xlink="http://www.w3.org/1999/xlink" x="0px" y="0px" width="200px"
	 height="200px" viewBox="0 0 200 200" enable-background="new 0 0 200 200" xml:space="preserve">
<g id="logIn">
	<path d="M200,100C200,44.86,155.141,0,100,0C74.068,0,49.485,9.884,30.779,27.83c-2.362,2.266-2.439,6.017-0.174,8.379
		c2.266,2.361,6.017,2.438,8.379,0.174C55.472,20.564,77.142,11.852,100,11.852c48.605,0,88.148,39.543,88.148,88.148
		c0,22.104-8.225,43.249-23.159,59.541c-16.665,18.18-40.353,28.607-64.989,28.607c-23.635,0-46.399-9.598-62.927-26.434
		c0.098-0.423,0.207-0.842,0.315-1.262c0.085-0.334,0.164-0.67,0.255-1.002c0.139-0.506,0.294-1.004,0.446-1.504
		c0.091-0.297,0.173-0.597,0.268-0.891c0.185-0.572,0.386-1.137,0.589-1.701c0.077-0.213,0.145-0.43,0.224-0.643
		c0.576-1.551,1.217-3.066,1.918-4.546c0.105-0.222,0.219-0.437,0.327-0.655c0.251-0.514,0.503-1.027,0.769-1.531
		c0.141-0.268,0.292-0.527,0.437-0.791c0.246-0.447,0.489-0.897,0.746-1.338c0.166-0.283,0.342-0.56,0.511-0.84
		c0.25-0.412,0.498-0.824,0.757-1.229c0.185-0.288,0.378-0.568,0.568-0.852c0.259-0.387,0.516-0.775,0.784-1.156
		c0.202-0.287,0.412-0.566,0.619-0.85c0.269-0.366,0.536-0.733,0.812-1.093c0.217-0.283,0.443-0.56,0.666-0.838
		c0.279-0.349,0.557-0.698,0.844-1.04c0.231-0.276,0.47-0.546,0.708-0.817c0.29-0.333,0.58-0.665,0.877-0.991
		c0.245-0.27,0.497-0.531,0.746-0.795c0.302-0.317,0.604-0.635,0.912-0.945c0.258-0.26,0.52-0.512,0.782-0.766
		c0.313-0.303,0.626-0.605,0.946-0.9c0.27-0.25,0.543-0.494,0.816-0.736c0.323-0.289,0.649-0.575,0.978-0.855
		c0.281-0.238,0.565-0.474,0.851-0.707c0.334-0.271,0.67-0.543,1.01-0.809c0.292-0.228,0.586-0.451,0.882-0.674
		c0.345-0.257,0.69-0.512,1.041-0.762c0.303-0.217,0.607-0.43,0.914-0.639c0.354-0.243,0.71-0.482,1.069-0.717
		c0.312-0.203,0.626-0.404,0.942-0.603c0.364-0.228,0.73-0.45,1.099-0.67c0.321-0.19,0.643-0.38,0.968-0.564
		c0.373-0.212,0.75-0.419,1.128-0.622c0.33-0.178,0.66-0.354,0.993-0.525c0.382-0.197,0.769-0.387,1.156-0.574
		c0.337-0.164,0.675-0.328,1.015-0.484c0.393-0.182,0.789-0.355,1.186-0.527c0.344-0.149,0.687-0.299,1.033-0.441
		c0.403-0.165,0.809-0.322,1.216-0.479c0.349-0.134,0.697-0.269,1.049-0.396c0.413-0.148,0.83-0.288,1.246-0.428
		c0.353-0.119,0.706-0.239,1.062-0.352c0.423-0.133,0.85-0.256,1.278-0.378c0.356-0.103,0.712-0.209,1.071-0.305
		c0.435-0.116,0.875-0.221,1.314-0.327c0.357-0.086,0.713-0.178,1.073-0.257c0.449-0.1,0.903-0.186,1.356-0.274
		c0.355-0.069,0.709-0.145,1.067-0.209c0.467-0.082,0.939-0.149,1.409-0.221c0.349-0.053,0.696-0.112,1.047-0.158
		c0.495-0.065,0.996-0.114,1.496-0.168c0.33-0.034,0.659-0.076,0.991-0.105c0.555-0.049,1.115-0.08,1.674-0.113
		c0.28-0.016,0.559-0.041,0.84-0.055c0.842-0.037,1.688-0.057,2.54-0.057h14.588c17.122,0,33.194,7.593,44.096,20.832
		c2.079,2.525,5.814,2.888,8.341,0.807c2.526-2.08,2.888-5.814,0.808-8.341c-9.291-11.283-21.697-19.163-35.463-22.825
		c7.834-6.941,12.785-17.067,12.785-28.333c0-20.876-16.984-37.861-37.861-37.861c-20.877,0-37.861,16.984-37.861,37.861
		c0,11.265,4.951,21.39,12.784,28.332c-0.194,0.052-0.39,0.101-0.584,0.153c-0.812,0.225-1.619,0.463-2.419,0.717
		c-0.098,0.03-0.198,0.057-0.296,0.088c-0.897,0.287-1.786,0.596-2.668,0.918c-0.275,0.1-0.545,0.211-0.819,0.314
		c-0.604,0.23-1.208,0.463-1.805,0.711c-0.331,0.137-0.657,0.281-0.986,0.424c-0.533,0.23-1.066,0.463-1.592,0.707
		c-0.344,0.158-0.684,0.322-1.024,0.486c-0.507,0.245-1.011,0.494-1.512,0.752c-0.338,0.172-0.675,0.348-1.01,0.527
		c-0.502,0.268-0.999,0.543-1.494,0.824c-0.319,0.181-0.639,0.36-0.955,0.546c-0.52,0.306-1.033,0.622-1.545,0.94
		c-0.279,0.174-0.56,0.344-0.836,0.521c-0.635,0.408-1.262,0.831-1.883,1.26c-0.142,0.098-0.288,0.19-0.429,0.29
		c-0.759,0.532-1.505,1.081-2.242,1.644c-0.213,0.163-0.42,0.334-0.632,0.5c-0.518,0.406-1.035,0.814-1.542,1.234
		c-0.27,0.224-0.534,0.455-0.799,0.682c-0.441,0.377-0.879,0.756-1.31,1.145c-0.278,0.25-0.552,0.505-0.826,0.76
		c-0.41,0.381-0.815,0.766-1.216,1.157c-0.271,0.265-0.542,0.532-0.81,0.803c-0.396,0.399-0.786,0.806-1.171,1.214
		c-0.255,0.271-0.51,0.539-0.761,0.814c-0.399,0.437-0.789,0.883-1.177,1.33c-0.222,0.256-0.448,0.508-0.667,0.769
		c-0.458,0.544-0.904,1.099-1.345,1.657c-0.136,0.172-0.277,0.34-0.412,0.514c-0.57,0.734-1.125,1.481-1.665,2.241
		c-0.144,0.202-0.279,0.409-0.421,0.614c-0.392,0.562-0.781,1.129-1.156,1.705c-0.19,0.292-0.372,0.588-0.557,0.883
		c-0.315,0.5-0.628,1.002-0.931,1.511c-0.193,0.325-0.38,0.653-0.569,0.982c-0.282,0.492-0.559,0.987-0.83,1.487
		c-0.184,0.341-0.365,0.684-0.543,1.027c-0.262,0.504-0.516,1.014-0.765,1.524c-0.168,0.345-0.336,0.688-0.499,1.036
		c-0.251,0.539-0.492,1.083-0.73,1.63c-0.142,0.327-0.288,0.651-0.427,0.981c-0.266,0.637-0.518,1.283-0.766,1.931
		c-0.094,0.245-0.194,0.487-0.285,0.733c-0.013,0.036-0.028,0.071-0.042,0.107C17.515,136.021,11.852,118.34,11.852,100
		c0-3.273-2.653-5.926-5.926-5.926C2.653,94.074,0,96.728,0,100c0,25.078,9.332,49.066,26.274,67.549
		C45.179,188.172,72.052,200,100,200c27.95,0,54.821-11.828,73.726-32.451c0.001-0.002,0.003-0.004,0.005-0.006
		C190.671,149.062,200,125.074,200,100z M100,53.68c14.341,0,26.009,11.667,26.009,26.009c0,14.342-11.668,26.009-26.009,26.009
		c-14.342,0-26.009-11.667-26.009-26.009C73.992,65.348,85.659,53.68,100,53.68z"/>
</g>
<g id="logOut" display="none">
	<g display="inline">
		<path d="M193.289,106.509H67.457c-3.592,0-6.509-2.916-6.509-6.509s2.917-6.509,6.509-6.509h125.832
			c3.593,0,6.508,2.916,6.508,6.509S196.882,106.509,193.289,106.509z"/>
		<path d="M102.169,141.22c-1.667,0-3.332-0.632-4.6-1.907L62.858,104.6c-2.542-2.544-2.542-6.666,0-9.208l34.711-34.711
			c2.543-2.543,6.664-2.543,9.209,0c2.542,2.542,2.542,6.663,0,9.206L76.665,100l30.113,30.113c2.542,2.542,2.542,6.664,0,9.206
			C105.502,140.588,103.835,141.22,102.169,141.22z"/>
		<path d="M95.662,195.459c-52.633,0-95.458-42.827-95.458-95.459c0-52.633,42.826-95.459,95.458-95.459
			c39.492,0,74.361,23.761,88.845,60.539c1.318,3.34-0.331,7.116-3.67,8.442c-3.343,1.304-7.118-0.32-8.444-3.679
			c-12.506-31.762-42.627-52.285-76.731-52.285c-45.457,0-82.442,36.987-82.442,82.441c0,45.455,36.986,82.442,82.442,82.442
			c34.104,0,64.225-20.524,76.731-52.277c1.317-3.359,5.094-4.981,8.444-3.679c3.339,1.318,4.988,5.102,3.67,8.443
			C170.022,171.699,135.153,195.459,95.662,195.459z"/>
	</g>
</g>
<g id="close" display="none">
	<g display="inline">
		<path d="M117.688,100.002l78.648-78.647c4.886-4.882,4.886-12.804,0-17.686c-4.887-4.886-12.8-4.886-17.687,0l-78.647,78.647
			L21.351,3.669c-4.887-4.886-12.8-4.886-17.686,0c-4.886,4.882-4.886,12.804,0,17.686l78.652,78.647L3.665,178.649
			c-4.886,4.882-4.886,12.804,0,17.687c2.443,2.438,5.645,3.66,8.843,3.66s6.4-1.222,8.843-3.665l78.651-78.647l78.647,78.647
			c2.443,2.443,5.646,3.665,8.843,3.665c3.198,0,6.4-1.222,8.844-3.665c4.886-4.882,4.886-12.804,0-17.686L117.688,100.002z"/>
	</g>
</g>
<g id="success" display="none">
	<circle display="inline" cx="100" cy="100" r="100"/>
	
		<polyline display="inline" fill="none" stroke="#FFFFFF" stroke-width="2" stroke-linecap="round" stroke-linejoin="round" stroke-miterlimit="10" points="
		152,64 88,136 48,104 	"/>
</g>
</svg>
